<?xml version="1.0" encoding="UTF-8" standalone="no"?>
<!-- Created with Inkscape (http://www.inkscape.org/) -->
<!-- Font Rampart One (https://fonts.google.com/specimen/Rampart+One) -->

<svg
   width="512"
   height="512"
   viewBox="0 0 135.46666 135.46667"
   version="1.1"
   id="svg5"
   inkscape:version="1.1.1 (3bf5ae0d25, 2021-09-20)"
   sodipodi:docname="katana.svg"
   xmlns:inkscape="http://www.inkscape.org/namespaces/inkscape"
   xmlns:sodipodi="http://sodipodi.sourceforge.net/DTD/sodipodi-0.dtd"
   xmlns:xlink="http://www.w3.org/1999/xlink"
   xmlns="http://www.w3.org/2000/svg"
   xmlns:svg="http://www.w3.org/2000/svg">
  <sodipodi:namedview
     id="namedview7"
     pagecolor="#ffffff"
     bordercolor="#666666"
     borderopacity="1.0"
     inkscape:pageshadow="2"
     inkscape:pageopacity="1"
     inkscape:pagecheckerboard="false"
     inkscape:document-units="mm"
     showgrid="false"
     units="px"
     inkscape:zoom="0.74118965"
     inkscape:cx="397.3342"
     inkscape:cy="275.90779"
     inkscape:window-width="1920"
     inkscape:window-height="1017"
     inkscape:window-x="-8"
     inkscape:window-y="-8"
     inkscape:window-maximized="1"
     inkscape:current-layer="layer1" />
  <defs
     id="defs2">
    <linearGradient
       inkscape:collect="always"
       id="linearGradient4091">
      <stop
         style="stop-color:#333941;stop-opacity:1"
         offset="0"
         id="stop4087" />
      <stop
         style="stop-color:#222831;stop-opacity:1"
         offset="1"
         id="stop4089" />
    </linearGradient>
    <linearGradient
       inkscape:collect="always"
       xlink:href="#linearGradient4091"
       id="linearGradient4093"
       x1="-6.357829e-07"
       y1="-6.357829e-07"
       x2="52.916668"
       y2="52.916668"
       gradientUnits="userSpaceOnUse"
       gradientTransform="scale(2.5599999)" />
  </defs>
  <g
     inkscape:label="Capa 1"
     inkscape:groupmode="layer"
     id="layer1"
     style="display:inline">
    <g
       inkscape:groupmode="layer"
       id="layer2"
       inkscape:label="Layer 1"
       style="display:inline">
      <rect
         style="fill:url(#linearGradient4093);fill-opacity:1;stroke:none;stroke-width:0.87552;stroke-miterlimit:4;stroke-dasharray:none;stroke-opacity:1"
         id="rect1034"
         width="135.46666"
         height="135.46666"
         x="-6.357829e-07"
         y="-6.357829e-07" />
    </g>
    <g
       aria-label="刀"
       id="text5643"
       style="font-size:35.4254px;line-height:1.25;font-family:'Rampart One';-inkscape-font-specification:'Rampart One';fill:#00adb5;stroke-width:0.885636"
       transform="matrix(2.9161708,0,0,2.9161708,-9.1711973,-9.5242515)">
      <path
         d="m 25.200731,36.271168 q -1.239889,1.912972 -2.869457,3.684242 -1.629569,1.806695 -3.719667,3.436263 l -3.54254,-1.77127 -3.825943,-5.349235 q 3.365413,-2.444353 5.242959,-5.030407 1.912971,-2.621479 2.763181,-5.490937 0.885635,-2.904882 1.027337,-6.128594 l -4.782429,0.425105 -3.54254,-1.77127 v -6.447423 l 26.17937,-2.3026508 3.54254,1.7712698 v 18.208656 q 0,3.329987 -0.389679,5.597213 -0.354254,2.2318 -1.487867,3.613391 -1.133613,1.38159 -3.436264,2.090098 -2.267225,0.743934 -6.057743,1.098188 l -3.54254,-1.77127 z M 12.305886,12.146471 v 5.738915 l 8.395819,-0.743934 v 0.247978 q 0,3.825943 -0.743933,7.155931 -0.708508,3.294562 -2.656905,6.23487 -1.912972,2.904883 -5.597213,5.597213 l 3.436264,4.711578 q 3.15286,-2.408927 5.242959,-5.278384 2.125524,-2.904883 3.365413,-6.093169 1.275314,-3.188286 1.806695,-6.482848 0.566807,-3.329988 0.566807,-6.553699 l 6.305721,-0.566806 v 13.957607 q 0,1.417016 -0.283403,2.16095 -0.283404,0.743933 -1.098188,1.098187 -0.779359,0.354254 -2.302651,0.531381 -1.523292,0.141701 -4.00307,0.354254 l 2.2318,5.526362 q 2.869458,-0.247978 4.817855,-0.708508 1.948397,-0.425105 3.117435,-1.204463 1.204463,-0.779359 1.806695,-2.054674 0.637657,-1.310739 0.85021,-3.259136 0.212552,-1.983823 0.212552,-4.782429 V 9.9146706 Z m 17.7127,6.62455 q -0.03543,3.719667 -0.814785,7.54561 -0.743933,3.790518 -2.515203,7.403908 2.302651,-0.212552 3.436264,-0.495955 1.169038,-0.283404 1.558717,-0.991911 0.38968,-0.708508 0.38968,-2.16095 V 18.593894 Z"
         id="path7668"
         style="fill:#bbe1fa;fill-opacity:1;stroke:#3282b8;stroke-width:0.886;stroke-miterlimit:4;stroke-dasharray:none;stroke-opacity:0.2" />
    </g>
  </g>
</svg>
